<?xml version="1.0" encoding="UTF-8"?>
<svg id="Layer_1" data-name="Layer 1" xmlns="http://www.w3.org/2000/svg" viewBox="0 0 606.48 262.14">
  <defs>
    <style>
      .cls-1 {
        fill: #fefefe;
      }

      .cls-1, .cls-2, .cls-3, .cls-4, .cls-5 {
        stroke-width: 0px;
      }

      .cls-2 {
        fill: none;
      }

      .cls-3 {
        fill: #fff;
      }

      .cls-4 {
        fill: #212529;
      }

      .cls-5 {
        fill: #88c7fa;
      }
    </style>
  </defs>
  <rect class="cls-4" width="606.48" height="262.14"/>
  <path class="cls-1" d="m9.05,250.33c8.23,4.24,15.78,4.67,19.17,4.41,11.36-.59,18.32-8.31,18.32-18.41s-8.15-15.09-17.56-18.57c-3.48-1.19-6.45-2.71-6.79-6.1-.26-3.4,1.7-6.53,6.02-6.79,1.87-.08,5.68-.17,12.39,2.54l1.53-11.7c-7.8-2.71-11.96-2.71-15.1-2.54-10.09.51-17.13,8.31-17.13,18.49s8.48,15.01,17.98,18.48c3.4,1.19,6.02,2.72,6.28,6.19.34,3.31-2.71,5.85-6.28,6.11-2.8.25-10.34.08-17.3-4.84l-1.53,12.72Z"/>
  <path class="cls-1" d="m85.79,254.24v-60.64h-12.12v60.64h12.12Z"/>
  <path class="cls-1" d="m144.23,219.29l-23.92-26.63h-3.9v61.57h12.3v-33.84l15.52,16.28,15.52-16.28-.09,33.84h12.3v-61.57h-3.81l-23.92,26.63Z"/>
  <path class="cls-1" d="m214.69,254.24v-23.15h11.7c23.49,0,23.58-37.4,0-37.4h-23.83v60.55h12.12Zm0-34.94v-13.57h10.69c8.14,0,8.14,13.57,0,13.57h-10.69Z"/>
  <path class="cls-5" d="m270.68,193.6v60.64h31.38v-12.13h-19.26v-48.51h-12.12Z"/>
  <path class="cls-5" d="m324.02,254.24h13.73l2.38-6.53h20.1l2.46,6.53h13.65l-25.53-62.84h-1.27l-25.53,62.84Zm20.52-17.9l5.68-15.78,5.52,15.78h-11.2Z"/>
  <path class="cls-5" d="m420.35,255.51h2.12l11.03-27.14,11.11,26.88h2.2l24.77-61.66h-13.66l-12.21,30.96-11.88-30.36h-.59l-11.88,30.36-12.21-30.96h-13.65l24.85,61.91Z"/>
  <path class="cls-1" d="m526.19,205.73v-12.13h-30.28v60.64h12.12v-24.26h15.44v-12.13h-15.44v-12.13h18.15Z"/>
  <path class="cls-1" d="m567.99,254.24h12.05v-27.31l21.2-33.33h-14.84l-12.39,20.86-12.38-20.86h-14.76l21.11,33.33v27.31Z"/>
  <path class="cls-5" d="m224.37,75.19c-.48,2.58-.83,5.18-1.05,7.8-.22,2.61-.31,5.24-.28,7.86.04,2.63.2,5.24.49,7.85.29,2.61.71,5.2,1.26,7.77.55,2.57,1.22,5.11,2.02,7.61.8,2.51,1.71,4.96,2.75,7.38,1.04,2.42,2.19,4.77,3.46,7.07,1.27,2.3,2.65,4.53,4.14,6.69,1.48,2.17,3.08,4.25,4.77,6.26,1.69,2.01,3.48,3.93,5.36,5.76,1.89,1.83,3.85,3.57,5.91,5.2,2.05,1.64,4.18,3.18,6.39,4.6,2.2,1.43,4.47,2.75,6.8,3.96,2.33,1.2,4.72,2.29,7.16,3.27,2.44.97,4.92,1.82,7.45,2.55s5.08,1.33,7.66,1.81c2.58.48,5.18.83,7.8,1.05,2.61.22,5.24.31,7.86.28,2.63-.03,5.24-.2,7.86-.49,2.61-.29,5.2-.71,7.77-1.26,2.57-.55,5.11-1.22,7.61-2.02,2.51-.8,4.96-1.71,7.38-2.76,2.42-1.04,4.77-2.19,7.07-3.46,2.3-1.27,4.53-2.65,6.69-4.14,2.17-1.49,4.25-3.08,6.26-4.77,2.01-1.7,3.93-3.48,5.76-5.36,1.83-1.89,3.57-3.85,5.21-5.91,1.64-2.05,3.17-4.18,4.6-6.39,1.43-2.2,2.75-4.47,3.96-6.81,1.2-2.33,2.3-4.72,3.27-7.16.97-2.44,1.82-4.93,2.55-7.45.73-2.53,1.33-5.08,1.81-7.66.48-2.58.83-5.18,1.05-7.8.22-2.62.31-5.24.28-7.86-.04-2.63-.2-5.24-.49-7.86-.29-2.61-.71-5.2-1.26-7.77-.55-2.57-1.22-5.1-2.02-7.6-.8-2.51-1.71-4.96-2.76-7.38-1.04-2.42-2.19-4.77-3.46-7.07-1.27-2.3-2.65-4.53-4.14-6.69-1.48-2.17-3.08-4.25-4.77-6.26-1.7-2.01-3.48-3.93-5.36-5.76-1.89-1.83-3.85-3.57-5.91-5.21-2.05-1.64-4.18-3.17-6.39-4.6-2.2-1.43-4.47-2.75-6.81-3.96-2.33-1.2-4.72-2.3-7.16-3.27-2.44-.97-4.93-1.82-7.45-2.55-2.53-.73-5.08-1.33-7.66-1.81-2.58-.47-5.18-.82-7.8-1.05-2.61-.22-5.24-.32-7.86-.28-2.63.04-5.24.2-7.86.49-2.61.29-5.2.71-7.77,1.26-2.57.55-5.11,1.22-7.61,2.02-2.51.8-4.96,1.71-7.38,2.75-2.42,1.04-4.77,2.19-7.07,3.46-2.3,1.27-4.53,2.65-6.69,4.14-2.17,1.49-4.25,3.08-6.26,4.78-2.01,1.69-3.93,3.48-5.76,5.36-1.83,1.89-3.57,3.85-5.21,5.91-1.64,2.05-3.17,4.18-4.6,6.39-1.43,2.2-2.75,4.47-3.96,6.8-1.2,2.33-2.3,4.72-3.27,7.16-.97,2.44-1.82,4.92-2.55,7.45s-1.33,5.08-1.81,7.66Z"/>
  <path class="cls-3" d="m332.17,131.83c3.63-19.6-9.33-38.43-28.93-42.06-19.6-3.62-32.55-22.45-28.93-42.05,3.4-18.38,20.16-30.91,38.4-29.42,1.22.16,2.44.26,3.66.49,39.2,7.24,65.11,44.91,57.86,84.11-7.02,37.98-42.59,63.38-80.45,58.35,18.24,1.49,34.99-11.04,38.39-29.42Zm-20.18-89.38c-6.53-1.21-12.81,3.11-14.02,9.65-1.21,6.53,3.11,12.81,9.64,14.02,6.54,1.21,12.81-3.11,14.02-9.64,1.21-6.53-3.11-12.81-9.65-14.02Z"/>
  <rect class="cls-2" x="284.58" y="112.57" width="25.33" height="25.33"/>
  <path class="cls-3" d="m284.85,123.08c-.14.78-.21,1.56-.2,2.35.01.79.1,1.57.26,2.34.17.78.41,1.53.72,2.25s.69,1.41,1.14,2.06c.45.65.96,1.26,1.52,1.81.57.55,1.18,1.04,1.84,1.47.67.43,1.36.79,2.1,1.08s1.49.51,2.27.66c.78.14,1.56.21,2.35.2s1.57-.1,2.34-.26c.77-.17,1.52-.41,2.25-.72.72-.31,1.41-.69,2.06-1.14s1.25-.95,1.8-1.52c.55-.56,1.04-1.18,1.47-1.84.43-.66.79-1.36,1.08-2.09s.51-1.49.65-2.27c.15-.78.21-1.56.2-2.35-.02-.79-.1-1.57-.27-2.34-.17-.78-.4-1.52-.71-2.25-.31-.72-.69-1.41-1.14-2.06s-.95-1.26-1.52-1.8c-.57-.55-1.18-1.04-1.84-1.47-.66-.43-1.36-.79-2.09-1.08s-1.49-.51-2.27-.65c-.78-.15-1.56-.21-2.35-.2-.79.01-1.57.1-2.34.27-.77.16-1.52.4-2.24.71-.73.31-1.42.69-2.07,1.14s-1.25.95-1.8,1.52-1.04,1.18-1.47,1.84c-.43.66-.79,1.36-1.08,2.09s-.51,1.49-.66,2.27Z"/>
</svg>